<?xml version="1.0" standalone="no"?><!DOCTYPE svg PUBLIC "-//W3C//DTD SVG 1.1//EN" "http://www.w3.org/Graphics/SVG/1.1/DTD/svg11.dtd"><svg class="icon" width="200px" height="200.00px" viewBox="0 0 1024 1024" version="1.1" xmlns="http://www.w3.org/2000/svg"><path fill="#ffffff" d="M512 128a384 384 0 1 1 0 768 384 384 0 0 1 0-768z m0 85.333333a298.666667 298.666667 0 1 0 0 597.333334 298.666667 298.666667 0 0 0 0-597.333334z m21.333333 234.666667a21.333333 21.333333 0 0 1 21.333334 21.333333v212.992a21.333333 21.333333 0 0 1-21.333334 21.333334h-42.666666a21.333333 21.333333 0 0 1-21.333334-21.333334V469.333333a21.333333 21.333333 0 0 1 21.333334-21.333333h42.666666z m0-128a21.333333 21.333333 0 0 1 21.333334 21.333333v42.325334a21.333333 21.333333 0 0 1-21.333334 21.333333h-42.666666a21.333333 21.333333 0 0 1-21.333334-21.333333V341.333333a21.333333 21.333333 0 0 1 21.333334-21.333333h42.666666z"  /></svg>